<?xml version="1.0" encoding="UTF-8"?>
<svg id="Camada_1" xmlns="http://www.w3.org/2000/svg" version="1.1" viewBox="0 0 703 156.2">
  <!-- Generator: Adobe Illustrator 29.1.0, SVG Export Plug-In . SVG Version: 2.1.0 Build 142)  -->
  <defs>
    <style>
      .st0 {
        fill: #ff00c8;
      }

      .st1 {
        fill: #37175c;
      }

      .st2 {
        fill: #ff16cd;
      }

      .st3 {
        fill: #fff;
      }

      .st4 {
        fill: #60d3ff;
      }
    </style>
  </defs>
  <path class="st3" d="M204.1,43.2v-4.3c0-.7.2-1.3.5-1.8.1-.2.3-.4.5-.6.5-.3,1.1-.5,2-.5h9.2c1.1,0,1.8.4,2.3.7.5.4.7,1.1.7,2.2v8.6c0,.7-.2,1.3-.5,1.8-.1.2-.3.4-.5.6-.5.3-1.1.5-2,.5h-9.2c-1.1,0-1.8-.4-2.3-.7-.5-.4-.7-1.1-.7-2.2v-4.3ZM217.6,58c1.1,0,2,.9,2,2v61.6c0,1.1-.9,2-2,2h-11.5c-1.1,0-2-.9-2-2v-61.6c0-1.1.9-2,2-2h11.5Z"/>
  <path class="st3" d="M256.2,56.2c.2,0,1.2,0,2.6.2,1.6,0,3.3.5,5.5,1.1,2.1.7,4.4,1.6,6.7,3.1,2.3,1.4,4.6,3.4,6.5,5.9,2.1,2.5,3.7,5.9,4.9,9.7,1.2,4,1.9,8.8,1.9,14.6v30.7c0,1.1-.9,2-2,2h-11.5c-1.1,0-2-.9-2-2v-30.7c0-2-.2-3.8-.5-5.7-.4-2-1.1-3.8-1.9-5.4-.9-1.6-2.3-3.1-3.9-4.1-1.8-1.1-3.9-1.6-6.7-1.6s-5.1.5-6.7,1.6c-1.8,1.1-3,2.5-3.9,4.1-.9,1.6-1.6,3.4-1.9,5.4-.4,2-.5,4-.5,5.7v30.7c0,1.1-.9,2-2,2h-11.5c-1.1,0-2-.9-2-2v-30.7c0-5.7.7-10.6,1.9-14.6,1.2-4,3-7.2,4.9-9.7,2.1-2.5,4.2-4.5,6.5-5.9,2.3-1.4,4.6-2.3,6.7-3.1,2.1-.7,3.9-1.1,5.5-1.1,2.1-.2,3-.2,3.3-.2Z"/>
  <path class="st3" d="M320.3,83.8h4.9c2.1,0,4.2.2,6.7.5,2.3.4,4.8.9,7.2,1.6,2.5.7,4.6,1.8,6.5,3.2,1.9,1.4,3.5,3.2,4.8,5.4,1.2,2.2,1.8,4.9,1.8,8.1,0,5-1.1,9-3.2,12-2.1,3.1-4.8,5.2-7.9,6.8-3.2,1.6-6.5,2.5-10,3.1-3.5.5-6.9.7-9.5.7h-3.3c-1.8,0-3.7-.4-5.8-.7-2.3-.4-4.6-1.1-7-2.2-2.5-.9-4.8-2.3-6.9-4.1-2.1-1.8-3.7-4.1-5.1-6.8-1.2-2.4-1.8-5.1-2.1-8.2,0-1.1.8-2,1.9-2h11.5c1.1,0,2.1.9,2.2,2,0,.2,0,.5.1.7.2,1.1.9,2.2,1.8,3.2.9,1.1,2.3,2,4.2,2.7,1.9.7,4.4,1.1,7.6,1.3,4.1,0,7,0,9.2-.5,2.1-.4,3.7-1.1,4.8-1.8,1.1-.7,1.6-1.4,1.8-2.3.2-.7.4-1.4.4-2.2s-.2-1.6-.4-2.3c-.2-.7-.9-1.4-1.9-2.2-1.1-.7-2.6-1.3-4.9-1.6-2.3-.4-5.3-.7-9.3-.7s-6.2-.5-9.2-1.3c-3-.7-5.8-2-8.3-3.6-2.5-1.6-4.4-3.6-6-5.9-1.6-2.3-2.3-5.2-2.3-8.6s.7-6.8,2.3-9.5c1.6-2.7,3.5-4.9,6-6.6,2.5-1.8,5.3-3.1,8.6-4,3.2-.9,6.5-1.3,10.2-1.3s4.4.2,7.4.7c3.2.4,6.2,1.4,9.2,3.1s5.6,3.8,7.8,6.8c1.8,2.6,2.9,6.1,3.1,10.2,0,1.1-.8,2-1.9,2h-11.5c-1.1,0-2-.9-2.2-2-.3-1.8-1.2-3.3-2.5-4.5-1.8-1.6-5.1-2.3-9.7-2.3s-6.3.7-8.5,2c-2.1,1.3-3.2,3.2-3.2,5.6s.9,3.6,2.6,4.6c.2.1.5.2.8.3,1.9.2,4.4.7,7.3.7Z"/>
  <path class="st3" d="M374.6,73.2v28.8c0,.1,0,.2,0,.3.2,1,.7,1.9,1.4,2.7.5.7,1.4,1.3,2.5,2,1.1.5,2.5.9,4.1.9h7.7c1.1,0,2,.9,2,2v11.6c0,1.1-.9,2-2,2h-13.5c-3.3-.4-6.3-1.3-8.8-2.9-2.1-1.3-4.2-3.2-6-5.7-1.8-2.5-2.6-6.1-2.6-10.6v-62c0-1.1.9-2,2-2h11.5c1.1,0,2,.9,2,2v13.6c0,1.1.9,2,2,2h10.6c1.1,0,2,.9,2,2v11.4c0,1.1-.9,2-2,2h-12.6c0,0-.2,0-.2-.2h0Z"/>
  <path class="st3" d="M459,123.5h-13.2c-1.1,0-2-.9-2-2v-6.8c0-.1,0-.3.1-.4h0c.4-.6,1.1-.2.8.5-1,1.7-2.2,3.1-3.5,4.2-2.1,2-4.4,3.2-6.5,4.1-2.5.9-4.9,1.4-7.6,1.6-5.3,0-9.9-1.3-13.9-3.6-1.8-1.1-3.5-2.3-5.1-4-1.6-1.6-3.2-3.6-4.4-5.9-1.2-2.3-2.3-5.4-3.2-8.6-.9-3.2-1.2-7.4-1.2-11.9s.4-8.4,1.2-11.9c.9-3.4,1.9-6.3,3.3-8.8,1.4-2.5,3-4.5,4.8-6.1,1.8-1.6,3.7-3.1,5.5-4,4.4-2.3,9.5-3.8,15.2-4,5.3,0,9.9.7,13.6,2.3,3.7,1.6,6.9,4,9.2,6.8,2.5,3.1,4.2,6.6,5.3,10.8,1.1,4.3,1.6,9.2,1.6,14.6v32.7c0,0,0,.2.2.2h0ZM429.4,71.4c-3.2,0-5.6.7-7.6,2-1.9,1.3-3.3,2.9-4.4,4.9-1.1,2-1.8,4-2.1,6.3-.4,2.2-.5,4.3-.5,6.3s.2,4,.5,6.3c.4,2.2,1.1,4.3,2.1,6.3,1.1,2,2.5,3.6,4.4,4.8,1.9,1.3,4.4,2,7.6,2s5.6-.7,7.6-2c1.9-1.3,3.3-2.9,4.4-4.8,1.1-2,1.8-4,2.1-6.3.4-2.2.5-4.3.5-6.3s-.2-4.7-.5-7c-.4-2.3-.9-4.3-1.9-6.3-1.1-1.8-2.5-3.4-4.4-4.5-1.9-1.1-4.6-1.6-7.8-1.6Z"/>
  <path class="st0" d="M494.4,60.8c.8,0,1.4.6,1.4,1.4v11.7c0,.8-.6,1.4-1.4,1.4h-10.6c-.8,0-1.4.6-1.4,1.4v43.5c0,.8-.6,1.4-1.4,1.4h-12.3c-.8,0-1.4-.6-1.4-1.4V53.7c0-4.5.9-8.1,2.6-10.6,1.8-2.5,3.9-4.5,6-5.7,2.6-1.6,5.6-2.5,8.8-2.9h16.4c.8,0,1.4.6,1.4,1.4v11.7c0,.8-.6,1.4-1.4,1.4h-10.6c-2.1,0-3.5.4-4.8,1.1-1.1.7-1.9,1.4-2.5,2.3-.7.9-1.1,2.2-1.1,3.4v3.6c0,.8.6,1.4,1.4,1.4h10.7Z"/>
  <path class="st0" d="M569.8,121.9h-13.7c-.8,0-1.4-.6-1.4-1.4v-7.3c0-.1,0-.3.1-.4.4-.6,1.1-.1.7.5-1,1.7-2.2,3.1-3.5,4.2-2.1,2-4.4,3.2-6.5,4.1-2.5.9-4.9,1.4-7.6,1.6-5.3,0-9.9-1.3-13.9-3.6-1.8-1.1-3.5-2.3-5.1-4-1.6-1.6-3.2-3.6-4.4-5.9-1.2-2.3-2.3-5.4-3.2-8.6-.9-3.2-1.2-7.4-1.2-11.9s.4-8.4,1.2-11.9c.9-3.4,1.9-6.3,3.3-8.8,1.4-2.5,3-4.5,4.8-6.1,1.8-1.6,3.7-3.1,5.5-4,4.4-2.3,9.5-3.8,15.2-4,5.3,0,9.9.7,13.6,2.3,3.7,1.6,6.9,4,9.2,6.8,2.5,3.1,4.2,6.6,5.3,10.8,1.1,4.3,1.6,9.2,1.6,14.6v32.7c0,0,0,.2.2.2ZM540.1,69.8c-3.2,0-5.6.7-7.6,2-1.9,1.3-3.3,2.9-4.4,4.9-1.1,2-1.8,4-2.1,6.3-.4,2.2-.5,4.3-.5,6.3s.2,4,.5,6.3c.4,2.2,1.1,4.3,2.1,6.3,1.1,2,2.5,3.6,4.4,4.9,1.9,1.3,4.4,2,7.6,2s5.6-.7,7.6-2c1.9-1.3,3.3-2.9,4.4-4.9,1.1-2,1.8-4,2.1-6.3.4-2.2.5-4.3.5-6.3s-.2-4.7-.5-7c-.4-2.3-.9-4.3-1.9-6.3-1.1-1.8-2.5-3.4-4.4-4.5-1.9-1.1-4.4-1.6-7.8-1.6Z"/>
  <path class="st0" d="M606.1,54.6c.2,0,1.2,0,2.6.2,1.6,0,3.3.5,5.5,1.1,2.1.7,4.4,1.6,6.7,3.1,2.3,1.4,4.6,3.4,6.5,5.9,2.1,2.5,3.7,5.9,4.9,9.7,1.2,4,1.9,8.8,1.9,14.6v31.3c0,.8-.6,1.4-1.4,1.4h-12.7c-.8,0-1.4-.6-1.4-1.4v-31.3c0-2-.2-3.8-.5-5.7-.4-2-1.1-3.8-1.9-5.4s-2.3-3.1-3.9-4.1c-1.8-1.1-3.9-1.6-6.7-1.6s-5.1.5-6.7,1.6c-1.8,1.1-3,2.5-3.9,4.1-.9,1.6-1.6,3.4-1.9,5.4-.4,2-.5,4-.5,5.7v31.3c0,.8-.6,1.4-1.4,1.4h-12.7c-.8,0-1.4-.6-1.4-1.4v-31.3c0-5.7.7-10.6,1.9-14.6,1.2-4,3-7.2,4.9-9.7,2.1-2.5,4.2-4.5,6.5-5.9,2.3-1.4,4.6-2.3,6.7-3.1,2.1-.7,3.9-1.1,5.5-1.1,2.1-.2,3-.2,3.3-.2Z"/>
  <path class="st0" d="M670.3,82.2h4.9c2.1,0,4.2.2,6.7.5,2.3.4,4.8.9,7.2,1.6,2.5.7,4.6,1.8,6.5,3.2,1.9,1.4,3.5,3.2,4.8,5.4,1.2,2.2,1.8,4.8,1.8,8.1,0,5-1.1,9-3.2,12-2.1,3.1-4.8,5.2-7.9,6.8-3.2,1.6-6.5,2.5-10,3.1-3.5.4-6.9.7-9.5.7h-3.3c-1.8,0-3.7-.4-5.8-.7-2.3-.4-4.6-1.1-7-2.2-2.5-.9-4.8-2.3-6.9-4.1-2.1-1.8-3.7-4.1-5.1-6.8-1.2-2.5-1.9-5.5-2.1-8.8,0-.8.6-1.4,1.4-1.4h12.7c.8,0,1.4.6,1.6,1.4,0,.4.1.8.2,1.3.2,1.1.9,2.2,1.8,3.2.9,1.1,2.3,2,4.2,2.7,1.9.7,4.4,1.1,7.6,1.3,4.1,0,7,0,9.2-.5,2.1-.4,3.7-1.1,4.8-1.8,1.1-.7,1.6-1.4,1.8-2.3.2-.7.4-1.4.4-2.2s-.2-1.6-.4-2.3c-.2-.7-.9-1.4-1.9-2.2-1.1-.7-2.6-1.3-4.9-1.6-2.3-.4-5.3-.7-9.3-.7s-6.2-.5-9.2-1.3c-3-.7-5.8-2-8.3-3.6-2.5-1.6-4.4-3.6-6-5.9-1.6-2.3-2.3-5.2-2.3-8.6s.7-6.8,2.3-9.5c1.6-2.7,3.5-4.9,6-6.6,2.5-1.8,5.3-3.1,8.6-4,3.2-.9,6.5-1.3,10.2-1.3s4.4.2,7.4.7c3.2.4,6.2,1.4,9.2,3.1,3,1.6,5.6,3.8,7.8,6.8,1.9,2.8,3,6.4,3.1,10.8,0,.8-.6,1.4-1.4,1.4h-12.7c-.8,0-1.4-.6-1.5-1.4-.3-2-1.1-3.7-2.6-5-1.8-1.6-5.1-2.3-9.7-2.3s-6.3.7-8.5,2c-2.1,1.3-3.2,3.2-3.2,5.6s1,3.6,2.7,4.7c.2.1.4.2.5.2,1.9.2,4.4.7,7.5.7Z"/>
  <path class="st2" d="M123.3,37.8l-51.6,107.7c-5.2,10.9-19.6,9.7-24.7-2.1L4.1,43.9c-1.1-2.1-1.7-4.4-1.7-6.8,0-2.4.5-4.7,1.5-6.8,1-2.1,2.5-4,4.4-5.4,1.9-1.4,4-2.4,6.3-2.7l94.5-8.2c11.2-1,19.6,12.9,14.3,23.8Z"/>
  <path class="st4" d="M144.2,66.3l-101.7,74.4c-2.3,1.7-5.1,2.7-7.9,2.9-2.9.2-5.7-.4-8.3-1.7-2.5-1.3-4.7-3.4-6.2-5.9-1.5-2.5-2.3-5.4-2.3-8.3l.4-109c0-2.5.6-5,1.7-7.2,1.1-2.2,2.8-4.2,4.8-5.6,2-1.5,4.3-2.4,6.7-2.8,2.4-.4,4.9-.1,7.3.6l101.3,34.7c2.7.9,5.1,2.6,6.9,4.8,1.8,2.2,3,4.9,3.5,7.8.4,2.9,0,5.8-1.1,8.5-1.1,2.7-2.9,5-5.2,6.7Z"/>
  <path class="st1" d="M18.2,21.9l-.2,54.3,27,62.6,46.1-33.7,32.3-67.3c.7-1.5,1.2-3.1,1.4-4.7l-47.8-16.4-58.7,5.1Z"/>
  <path class="st3" d="M92.7,30.3c1.1,0,2,.9,2,2v9.7c0,1.1-.9,2-2,2h-9.3c-2,0-3.3.3-4.5,1-1,.7-1.8,1.4-2.3,2.2-.7.8-1,2-1,3.2v2.7c0,1.1.9,2,2,2h8.8c1.1,0,2,.9,2,2v9.7c0,1.1-.9,2-2,2h-8.6c-1.1,0-2,.9-2,2v39.6c0,1.1-.9,2-2,2h-10.3c-1.1,0-2-.9-2-2v-62.1c0-4.2.8-7.6,2.5-10,1.7-2.4,3.7-4.2,5.6-5.4,2.5-1.5,5.3-2.4,8.3-2.7h14.8Z"/>
  <path class="st3" d="M53.8,71.4c1.1,0,2,.9,2,2v37.1c0,1.1-.9,2-2,2h-11.5c-1.1,0-2-.9-2-2v-37.1c0-1.1.9-2,2-2h11.5Z"/>
  <path class="st2" d="M40.3,51.8v8.8c0,1.1.2,1.8.7,2.2.5.4,1.3.7,2.4.7h9.4c.9,0,1.5-.2,2-.5.2-.1.4-.3.6-.6.3-.5.5-1.1.5-1.9v-8.8c0-1.1-.2-1.8-.7-2.2-.5-.4-1.3-.7-2.4-.7h-9.4c-.9,0-1.5.2-2,.5-.2.1-.4.3-.6.6-.3.5-.5,1.1-.5,1.9Z"/>
</svg>